STARTFONT 2.1
FONT -MIT-40FG KST-Medium-R-Normal--40-14-200-200-P-25-ISO8859-1
SIZE 14 200 200
FONTBOUNDINGBOX 25 40 -11 -7
STARTPROPERTIES 17
ADD_STYLE_NAME ""
AVERAGE_WIDTH 25
CHARSET_ENCODING "1"
CHARSET_REGISTRY "ISO8859"
DEFAULT_CHAR 0
FAMILY "40FG KST"
FONT_ASCENT 33
FONT_DESCENT 7
FOUNDRY "MIT"
PIXEL_SIZE 40
POINT_SIZE 14
RESOLUTION_X 200
RESOLUTION_Y 200
SETWIDTH_NAME "Normal"
SLANT "R"
SPACING "P"
WEIGHT_NAME "Medium"
ENDPROPERTIES
CHARS 127
STARTCHAR char1
ENCODING 1
SWIDTH 1775 0
DWIDTH 25 0
BBX 19 40 1 -7
BITMAP
00E000
00E000
00E000
00E000
00E000
00E000
00E000
00E000
00E000
00E000
00E000
00E000
00E000
00E000
00E000
00E000
00E000
C0E060
E0E0E0
F0E1E0
F0E1E0
78E3C0
78E3C0
3CE780
1CE700
0FFE00
0FFE00
07FC00
07FC00
03F800
01F000
00E000
000000
000000
000000
000000
000000
000000
000000
000000
ENDCHAR
STARTCHAR char2
ENCODING 2
SWIDTH 1775 0
DWIDTH 25 0
BBX 21 40 0 -7
BITMAP
000000
000000
000000
000000
000000
000000
000000
000000
000000
000000
000038
000078
0FE070
1FE070
3FF8E0
703DE0
601FE0
E00FC0
E00F80
E00780
E00780
E00780
E00780
E00780
E00F80
E00F80
E00FC0
601FC0
7039C0
3FF0F8
1FE038
0FC008
000000
000000
000000
000000
000000
000000
000000
000000
ENDCHAR
STARTCHAR char3
ENCODING 3
SWIDTH 1775 0
DWIDTH 25 0
BBX 21 40 0 -7
BITMAP
000F80
003FC0
007FE0
00FFF0
01FFF0
03E0F0
07C070
0F8070
0F0070
1E00E0
1C00E0
1C01E0
3801C0
300380
700700
700F00
701F00
700FC0
7007E0
F001F0
F000F8
F00078
F00078
F00078
F00078
F00078
F00078
FE00F8
FFFFF0
FFFFE0
E3FFC0
E00000
E00000
E00000
E00000
E00000
E00000
E00000
E00000
E00000
ENDCHAR
STARTCHAR char4
ENCODING 4
SWIDTH 1775 0
DWIDTH 25 0
BBX 21 40 0 -7
BITMAP
000000
000000
000000
000000
000000
000000
000000
000000
000000
000000
000000
000000
007000
00F800
01FC00
038E00
038E00
078F00
070700
0E0380
0E0380
1C01C0
1C01C0
3800E0
3800E0
700070
700070
E00038
E00038
C00018
C00018
800008
000000
000000
000000
000000
000000
000000
000000
000000
ENDCHAR
STARTCHAR char5
ENCODING 5
SWIDTH 1775 0
DWIDTH 25 0
BBX 23 40 0 -7
BITMAP
000000
000000
000000
000000
000000
000000
000000
000000
000000
000000
000000
000000
000000
000000
000000
000000
FFFFFE
FFFFFE
FFFFFE
00000E
00000E
00000E
00000E
00000E
00000E
00000E
000000
000000
000000
000000
000000
000000
000000
000000
000000
000000
000000
000000
000000
000000
ENDCHAR
STARTCHAR char6
ENCODING 6
SWIDTH 1775 0
DWIDTH 25 0
BBX 14 40 3 -7
BITMAP
0000
0000
0000
0000
0000
0000
0000
0000
0000
0000
0000
0000
03FC
0FE0
3F80
3C00
7800
7000
E000
E000
E000
FFE0
FFE0
E000
E000
E000
7000
7800
3C00
3F80
0FC0
03FC
0000
0000
0000
0000
0000
0000
0000
0000
ENDCHAR
STARTCHAR char7
ENCODING 7
SWIDTH 1775 0
DWIDTH 25 0
BBX 23 40 0 -7
BITMAP
000000
000000
000000
000000
000000
000000
000000
000000
000000
000000
000000
00000E
1FFFFE
FFFFFE
F1C7F0
E1C3E0
C1C3C0
01C3C0
01C1C0
0381C0
0781C0
0701C0
0701C0
0701C0
0700E0
0E00E0
0E00F0
0E0070
0E0070
0E0038
0E0038
0E0038
000000
000000
000000
000000
000000
000000
000000
000000
ENDCHAR
STARTCHAR char8
ENCODING 8
SWIDTH 1775 0
DWIDTH 25 0
BBX 21 40 0 -7
BITMAP
000000
000000
000000
000000
7F0000
FF8000
FFC000
83C000
81E000
00E000
007000
007000
003800
003800
003C00
003C00
003C00
003E00
007E00
00FE00
01FF00
03EF00
07C700
0F8380
1F0380
3E01C0
7C01C0
7800E0
7000E0
E00070
E00078
E00078
000000
000000
000000
000000
000000
000000
000000
000000
ENDCHAR
STARTCHAR char9
ENCODING 9
SWIDTH 1775 0
DWIDTH 25 0
BBX 21 40 0 -7
BITMAP
000000
000000
000000
000000
000000
000008
E00018
F00078
F80078
7C00F0
3E03E0
1F03C0
0F8F80
07CF00
03FE00
01FC00
00FC00
00FC00
00FC00
00FC00
00FC00
00FC00
00FC00
00DC00
00DC00
00DC00
005C00
007C00
007C00
003800
000000
000000
000000
000000
000000
000000
000000
000000
000000
000000
ENDCHAR
STARTCHAR char10
ENCODING 10
SWIDTH 1775 0
DWIDTH 25 0
BBX 18 40 0 -7
BITMAP
000000
000000
000000
000000
000000
03FE00
0FFFC0
3FFFC0
7FFFC0
7801C0
700040
780000
7C0000
3F8000
03C000
03F000
03FE00
03FF00
3FFF80
7FFFC0
F803C0
C001C0
C001C0
C001C0
C001C0
E001C0
F003C0
FC0780
7FFF80
7FFF80
0FFC00
0FF800
000000
000000
000000
000000
000000
000000
000000
000000
ENDCHAR
STARTCHAR char11
ENCODING 11
SWIDTH 1775 0
DWIDTH 25 0
BBX 19 40 1 -7
BITMAP
00E000
01F000
03F800
07FC00
07FC00
0FFE00
0FFE00
1CE700
3CE780
78E3C0
78E3C0
F8E3E0
F0E1E0
E0E0E0
C0E060
00E000
00E000
00E000
00E000
00E000
00E000
00E000
00E000
00E000
00E000
00E000
00E000
00E000
00E000
00E000
00E000
00E000
000000
000000
000000
000000
000000
000000
000000
000000
ENDCHAR
STARTCHAR char12
ENCODING 12
SWIDTH 1775 0
DWIDTH 25 0
BBX 23 40 0 -7
BITMAP
000000
000000
003800
003800
003800
003800
003800
003800
003800
003800
003800
FFFFFE
FFFFFE
FFFFFE
003800
003800
003800
003800
003800
003800
003800
003800
003800
003800
000000
000000
000000
FFFFFE
FFFFFE
FFFFFE
000000
000000
000000
000000
000000
000000
000000
000000
000000
000000
ENDCHAR
STARTCHAR char13
ENCODING 13
SWIDTH 1775 0
DWIDTH 25 0
BBX 21 40 0 -7
BITMAP
000000
000000
000000
000000
000000
000000
000000
000000
01FC00
07FF00
0FFF80
1C71C0
3870E0
707070
607030
E07018
E07018
FFFFF8
FFFFF8
FFFFF8
FFFFF8
E07018
E07018
607030
707070
3870E0
1C71C0
0FFF80
07FF00
01FC00
000000
000000
000000
000000
000000
000000
000000
000000
000000
000000
ENDCHAR
STARTCHAR char14
ENCODING 14
SWIDTH 1775 0
DWIDTH 25 0
BBX 21 40 0 -7
BITMAP
000000
000000
000000
000000
000000
000000
000000
000000
000000
000000
000000
000000
000000
000000
000000
3F07E0
7F8FF0
E1FC18
E0F818
E0F818
E0F818
E0F818
E0F818
E0F818
E0F818
FFFFF8
7F8FF0
3F07E0
000000
000000
000000
000000
000000
000000
000000
000000
000000
000000
000000
000000
ENDCHAR
STARTCHAR char15
ENCODING 15
SWIDTH 1775 0
DWIDTH 25 0
BBX 19 40 1 -7
BITMAP
01F000
07FC00
07FF00
07FF80
0701C0
0000E0
0000E0
0000E0
0000E0
0000E0
0000E0
0000E0
0000E0
0000E0
0000E0
0FF8E0
1FFFE0
3FFFE0
7803E0
F001E0
F001E0
F001E0
F001E0
F001E0
F001E0
F001C0
F00380
700F00
3FFE00
3FFC00
0FF800
07F000
000000
000000
000000
000000
000000
000000
000000
000000
ENDCHAR
STARTCHAR char16
ENCODING 16
SWIDTH 1775 0
DWIDTH 25 0
BBX 21 40 0 -7
BITMAP
000000
000000
000000
000000
000000
000000
000000
000000
000000
000000
000000
01FFF8
03FFF8
0FFFF8
1E0000
3E0000
7C0000
F80000
F00000
E00000
E00000
E00000
E00000
E00000
F00000
F80000
7C0000
3E0000
1E0000
0FFFF8
03FFF8
01FFF8
000000
000000
000000
000000
000000
000000
000000
000000
ENDCHAR
STARTCHAR char17
ENCODING 17
SWIDTH 1775 0
DWIDTH 25 0
BBX 21 40 0 -7
BITMAP
000000
000000
000000
000000
000000
000000
000000
000000
000000
000000
000000
FFFC00
FFFE00
FFFF80
0003C0
0003E0
0001F0
0000F8
000078
000038
000038
000038
000038
000038
000078
0000F8
0001F0
0003E0
0003C0
FFFF80
FFFE00
FFFC00
000000
000000
000000
000000
000000
000000
000000
000000
ENDCHAR
STARTCHAR char18
ENCODING 18
SWIDTH 1775 0
DWIDTH 25 0
BBX 18 40 1 -7
BITMAP
000000
000000
000000
000000
000000
01E000
0FFC00
1FFE00
3E1F00
7C0F80
F807C0
E001C0
E001C0
E001C0
E001C0
E001C0
E001C0
E001C0
E001C0
E001C0
E001C0
E001C0
E001C0
E001C0
E001C0
E001C0
E001C0
E001C0
E001C0
E001C0
E001C0
E001C0
000000
000000
000000
000000
000000
000000
000000
000000
ENDCHAR
STARTCHAR char19
ENCODING 19
SWIDTH 1775 0
DWIDTH 25 0
BBX 18 40 1 -7
BITMAP
000000
000000
000000
000000
000000
E001C0
E001C0
E001C0
E001C0
E001C0
E001C0
E001C0
E001C0
E001C0
E001C0
E001C0
E001C0
E001C0
E001C0
E001C0
E001C0
E001C0
E001C0
E001C0
E001C0
E001C0
F807C0
7C0F80
3E1F00
1FFE00
0FFC00
01E000
000000
000000
000000
000000
000000
000000
000000
000000
ENDCHAR
STARTCHAR char20
ENCODING 20
SWIDTH 1775 0
DWIDTH 25 0
BBX 23 40 0 -7
BITMAP
F0000E
F0000E
F0000E
70001C
380038
380038
380038
380038
1E00F0
1E00F0
1E00F0
0FFFF0
0FFFE0
07FFC0
0701C0
0701C0
0701C0
038380
03C780
01C700
01C700
01C700
00FE00
00FE00
00FE00
00FE00
007C00
003800
003800
003800
003800
003800
000000
000000
000000
000000
000000
000000
000000
000000
ENDCHAR
STARTCHAR char21
ENCODING 21
SWIDTH 1775 0
DWIDTH 25 0
BBX 21 40 0 -7
BITMAP
FFFFF8
FFFFF8
FFFFF8
000078
000078
000078
000078
000078
000078
000078
000078
000078
000078
000078
00FFF8
00FFF8
00FFF8
00FFF8
000078
000078
000078
000078
000078
000078
000078
000078
000078
000078
000078
FFFFF8
FFFFF8
FFFFF8
000000
000000
000000
000000
000000
000000
000000
000000
ENDCHAR
STARTCHAR char22
ENCODING 22
SWIDTH 1775 0
DWIDTH 25 0
BBX 21 40 0 -7
BITMAP
000000
000000
000000
000000
000000
000000
000000
000000
000000
000000
000000
000000
01FC00
07FF00
0FFF80
1C01C0
3E03E0
7F07F0
630E10
E3FE18
E1FC18
E0F818
E0F818
E1FC18
E3FE18
638E10
7F07F0
3E03E0
1C01C0
0FFF80
07FF00
01FC00
000000
000000
000000
000000
000000
000000
000000
000000
ENDCHAR
STARTCHAR char23
ENCODING 23
SWIDTH 1775 0
DWIDTH 25 0
BBX 21 40 0 -7
BITMAP
000000
000000
000000
000000
000000
000000
000000
000000
000000
000000
000000
000000
000000
060300
060300
1E03C0
3C01E0
3800E0
FFFFF8
FFFFF8
FFFFF8
FFFFF8
FFFFF8
3800E0
1C01C0
1E03C0
060300
060300
000000
000000
000000
000000
000000
000000
000000
000000
000000
000000
000000
000000
ENDCHAR
STARTCHAR char24
ENCODING 24
SWIDTH 1775 0
DWIDTH 25 0
BBX 21 40 0 -7
BITMAP
000000
000000
000000
000000
000000
000000
000000
000000
000000
000000
000000
000000
000000
070000
0F0000
1C0000
380000
780000
F00000
FFFFF8
FFFFF8
FFFFF8
F00000
780000
380000
1C0000
0F0000
070000
000000
000000
000000
000000
000000
000000
000000
000000
000000
000000
000000
000000
ENDCHAR
STARTCHAR char25
ENCODING 25
SWIDTH 1775 0
DWIDTH 25 0
BBX 21 40 0 -7
BITMAP
000000
000000
000000
000000
000000
000000
000000
000000
000000
000000
000000
000000
000000
000700
000780
0001C0
0000E0
0000F0
000078
FFFFF8
FFFFF8
FFFFF8
000078
0000F0
0000E0
0001C0
000780
000700
000000
000000
000000
000000
000000
000000
000000
000000
000000
000000
000000
000000
ENDCHAR
STARTCHAR char26
ENCODING 26
SWIDTH 1775 0
DWIDTH 25 0
BBX 20 40 1 -7
BITMAP
000000
000000
000000
000000
000000
000000
000000
000000
000000
000000
000000
000000
0000E0
0001C0
000380
000780
FFFFF0
FFFFF0
FFFFF0
003C00
003800
007000
00F000
FFFFF0
FFFFF0
FFFFF0
1E0000
1C0000
380000
700000
000000
000000
000000
000000
000000
000000
000000
000000
000000
000000
ENDCHAR
STARTCHAR char27
ENCODING 27
SWIDTH 1775 0
DWIDTH 25 0
BBX 19 40 0 -7
BITMAP
000000
000000
000000
000000
004000
004000
00E000
01F000
01F000
01F000
03F800
07FC00
0F1E00
1E1F00
3C0780
7C07C0
FC07E0
FC07E0
7C07C0
3C0780
1E0F00
1F1E00
07FC00
03F800
01F000
01F000
01F000
00E000
00E000
004000
000000
000000
000000
000000
000000
000000
000000
000000
000000
000000
ENDCHAR
STARTCHAR char28
ENCODING 28
SWIDTH 1775 0
DWIDTH 25 0
BBX 20 40 1 -7
BITMAP
000000
000000
000000
000000
000000
000000
000070
0000F0
0007F0
001F80
003F00
01FC00
03F000
0FC000
FE0000
FE0000
FE0000
1FC000
0FC000
03F800
00FE00
003F00
000FF0
0003F0
0000F0
000000
000000
000000
000000
FFFFF0
FFFFF0
FFFFF0
000000
000000
000000
000000
000000
000000
000000
000000
ENDCHAR
STARTCHAR char29
ENCODING 29
SWIDTH 1775 0
DWIDTH 25 0
BBX 20 40 1 -7
BITMAP
000000
000000
000000
000000
000000
000000
E00000
F00000
FE0000
1F8000
0FC000
03F800
00FE00
003F00
0007F0
0007F0
0007F0
003F80
003F00
01FC00
03F000
0FC000
FF0000
FC0000
F00000
000000
000000
000000
000000
FFFFF0
FFFFF0
FFFFF0
000000
000000
000000
000000
000000
000000
000000
000000
ENDCHAR
STARTCHAR char30
ENCODING 30
SWIDTH 1775 0
DWIDTH 25 0
BBX 20 40 1 -7
BITMAP
000000
000000
000000
000000
000000
000000
000000
000000
000000
000000
000000
000000
000000
FFFFF0
FFFFF0
FFFFF0
000000
000000
000000
FFFFF0
FFFFF0
FFFFF0
FFFFF0
000000
000000
000000
FFFFF0
FFFFF0
FFFFF0
000000
000000
000000
000000
000000
000000
000000
000000
000000
000000
000000
ENDCHAR
STARTCHAR char31
ENCODING 31
SWIDTH 1775 0
DWIDTH 25 0
BBX 21 40 0 -7
BITMAP
000000
000000
000000
000000
000000
000000
000000
000000
000000
000000
000000
000000
800008
C00018
C00018
E00038
E00038
700070
700070
3800E0
3800E0
1C01C0
1C01C0
0E0380
0E0380
070780
078F00
038E00
038E00
01FC00
00F800
007000
000000
000000
000000
000000
000000
000000
000000
000000
ENDCHAR
STARTCHAR char32
ENCODING 32
SWIDTH 1775 0
DWIDTH 25 0
BBX 1 40 0 -7
BITMAP
00
00
00
00
00
00
00
00
00
00
00
00
00
00
00
00
00
00
00
00
00
00
00
00
00
00
00
00
00
00
00
00
00
00
00
00
00
00
00
00
ENDCHAR
STARTCHAR char33
ENCODING 33
SWIDTH 1775 0
DWIDTH 25 0
BBX 4 40 9 -7
BITMAP
F0
F0
F0
F0
F0
F0
F0
F0
F0
F0
F0
F0
F0
F0
F0
F0
F0
F0
F0
F0
F0
F0
00
00
00
00
00
F0
F0
F0
F0
F0
00
00
00
00
00
00
00
00
ENDCHAR
STARTCHAR char34
ENCODING 34
SWIDTH 1775 0
DWIDTH 25 0
BBX 12 40 4 -7
BITMAP
F0F0
F0F0
F0F0
F0F0
F0F0
F0F0
F0F0
F0F0
F0F0
F0F0
F0F0
F0F0
F0F0
0000
0000
0000
0000
0000
0000
0000
0000
0000
0000
0000
0000
0000
0000
0000
0000
0000
0000
0000
0000
0000
0000
0000
0000
0000
0000
0000
ENDCHAR
STARTCHAR char35
ENCODING 35
SWIDTH 1775 0
DWIDTH 25 0
BBX 23 40 0 -7
BITMAP
00F00E
00F00E
00F00E
00F00E
00E01E
01C03C
01C03C
01C03C
3FFFFE
3FFFFE
3FFFFE
0700F0
0700F0
0700F0
0700F0
0700F0
0E01C0
0E01C0
0E01C0
0E01C0
0E01C0
FFFFF8
FFFFF8
FFFFF8
780700
780700
780700
700E00
F00E00
F00E00
F00E00
F00E00
000000
000000
000000
000000
000000
000000
000000
000000
ENDCHAR
STARTCHAR char36
ENCODING 36
SWIDTH 1775 0
DWIDTH 25 0
BBX 20 40 1 -7
BITMAP
070E00
070E00
070E00
0FFF00
1FFF80
3FFFC0
7F0FE0
7F0FF0
770EF0
770E70
770E00
7F0E00
7F0E00
3F0E00
1FFE00
0FFE00
07FF00
07FF80
070FC0
070FE0
070FE0
070EE0
E70EE0
F70EE0
FF0FE0
7F0FE0
3FFFC0
1FFF80
0FFF00
070E00
070E00
070E00
000000
000000
000000
000000
000000
000000
000000
000000
ENDCHAR
STARTCHAR char37
ENCODING 37
SWIDTH 1775 0
DWIDTH 25 0
BBX 21 40 0 -7
BITMAP
000070
000070
3E0070
7F00E0
FF81E0
E1C1C0
E1C3C0
E1C380
E1C380
E1C700
7F8F00
3F0E00
000E00
001C00
003C00
003800
007800
007000
007000
00E000
01E000
01C3C0
03C7E0
038FF0
039C18
071C18
0F1C18
0E1C18
1E1C18
1C0FF0
1C07E0
1C03C0
000000
000000
000000
000000
000000
000000
000000
000000
ENDCHAR
STARTCHAR char38
ENCODING 38
SWIDTH 1775 0
DWIDTH 25 0
BBX 21 40 0 -7
BITMAP
007E00
00FF00
07CF80
0787C0
0703C0
0F01C0
0F01C0
0F01C0
0F0380
078780
03CF80
01FC00
03F800
0FF000
1FF000
3FF000
7CF800
F87C00
F03E00
F03E38
F01F38
F00F38
F00FB8
F00FB8
F007F0
F807F0
FC07F0
7E0FF8
7FFFF8
3FFE38
0FFC00
03F800
000000
000000
000000
000000
000000
000000
000000
000000
ENDCHAR
STARTCHAR char39
ENCODING 39
SWIDTH 1775 0
DWIDTH 25 0
BBX 8 40 4 -7
BITMAP
7E
7E
FF
FF
7F
3F
1F
1E
1C
38
30
20
00
00
00
00
00
00
00
00
00
00
00
00
00
00
00
00
00
00
00
00
00
00
00
00
00
00
00
00
ENDCHAR
STARTCHAR char40
ENCODING 40
SWIDTH 1775 0
DWIDTH 25 0
BBX 8 40 10 -7
BITMAP
0F
1F
1E
3C
38
70
70
70
70
70
F0
F0
F0
F0
F0
F0
F0
F0
F0
F0
F0
F0
70
70
70
70
70
38
3C
1E
1F
0F
00
00
00
00
00
00
00
00
ENDCHAR
STARTCHAR char41
ENCODING 41
SWIDTH 1775 0
DWIDTH 25 0
BBX 9 40 3 -7
BITMAP
F000
F800
7C00
3C00
1E00
0E00
0E00
0F00
0F00
0F00
0F00
0F80
0F80
0F80
0F80
0F80
0F80
0F80
0F80
0F80
0F80
0F00
0F00
0F00
0F00
0E00
0E00
1E00
3C00
7C00
F800
F000
0000
0000
0000
0000
0000
0000
0000
0000
ENDCHAR
STARTCHAR char42
ENCODING 42
SWIDTH 1775 0
DWIDTH 25 0
BBX 23 40 0 -7
BITMAP
000000
000000
000000
000000
000000
000000
000000
000000
003800
007C00
007C00
E0380E
F0381E
F8383E
FC387E
FE38FE
1FFFF0
0FFFE0
07FFC0
03FF80
03FF80
07FFC0
0FFFE0
1FFFF0
FE38FE
FC387E
F8383E
F0381E
E0380E
007C00
007C00
003800
000000
000000
000000
000000
000000
000000
000000
000000
ENDCHAR
STARTCHAR char43
ENCODING 43
SWIDTH 1775 0
DWIDTH 25 0
BBX 23 40 0 -7
BITMAP
000000
000000
000000
000000
000000
000000
000000
000000
000000
000000
003800
003800
003800
003800
003800
003800
003800
003800
003800
FFFFFE
FFFFFE
FFFFFE
FFFFFE
003800
003800
003800
003800
003800
003800
003800
003800
003800
000000
000000
000000
000000
000000
000000
000000
000000
ENDCHAR
STARTCHAR char44
ENCODING 44
SWIDTH 1775 0
DWIDTH 25 0
BBX 8 40 4 -7
BITMAP
00
00
00
00
00
00
00
00
00
00
00
00
00
00
00
00
00
00
00
00
00
00
00
00
00
00
7E
7E
FF
FF
7F
3F
1F
1E
1C
38
30
20
00
00
ENDCHAR
STARTCHAR char45
ENCODING 45
SWIDTH 1775 0
DWIDTH 25 0
BBX 20 40 1 -7
BITMAP
000000
000000
000000
000000
000000
000000
000000
000000
000000
000000
000000
000000
000000
000000
000000
000000
000000
000000
000000
FFFFF0
FFFFF0
FFFFF0
000000
000000
000000
000000
000000
000000
000000
000000
000000
000000
000000
000000
000000
000000
000000
000000
000000
000000
ENDCHAR
STARTCHAR char46
ENCODING 46
SWIDTH 1775 0
DWIDTH 25 0
BBX 8 40 4 -7
BITMAP
00
00
00
00
00
00
00
00
00
00
00
00
00
00
00
00
00
00
00
00
00
00
00
00
3C
7E
FF
FF
FF
FF
7E
3C
00
00
00
00
00
00
00
00
ENDCHAR
STARTCHAR char47
ENCODING 47
SWIDTH 1775 0
DWIDTH 25 0
BBX 19 40 1 -7
BITMAP
0001E0
0001E0
0001C0
0003C0
000780
000700
000F00
000F00
001E00
001E00
003C00
003800
007800
00F800
00F000
00F000
01E000
01E000
03C000
07C000
078000
070000
0F0000
0F0000
1E0000
1E0000
3C0000
380000
780000
F80000
F00000
E00000
000000
000000
000000
000000
000000
000000
000000
000000
ENDCHAR
STARTCHAR char48
ENCODING 48
SWIDTH 1775 0
DWIDTH 25 0
BBX 21 40 0 -7
BITMAP
03FE00
07FF00
0FFF80
1FFFC0
3E03F8
7C01F8
7801F8
7801F8
7801F8
7801F0
7803F0
7807F0
780FF0
781EF0
783CF0
7878F0
78F0F0
79E0F0
7BC0F0
7F80F0
7F00F0
7E00F0
7C00F0
7C00F0
FC00F0
FC00F0
FC01F0
FE03E0
1FFFC0
0FFF80
07FF00
03FE00
000000
000000
000000
000000
000000
000000
000000
000000
ENDCHAR
STARTCHAR char49
ENCODING 49
SWIDTH 1775 0
DWIDTH 25 0
BBX 16 40 2 -7
BITMAP
0F80
0F80
1F80
3F80
7380
E380
0380
0380
0380
0380
0380
0380
0380
0380
0380
0380
0380
0380
0380
0380
0380
0380
0380
0380
0380
0380
0380
0380
0380
FFFF
FFFF
FFFF
0000
0000
0000
0000
0000
0000
0000
0000
ENDCHAR
STARTCHAR char50
ENCODING 50
SWIDTH 1775 0
DWIDTH 25 0
BBX 20 40 0 -7
BITMAP
07FE00
7FFFE0
7FFFE0
7801E0
7000E0
E00070
E00070
E00070
000070
000070
000070
0000E0
0001C0
000380
000700
000E00
001C00
003800
007000
00E000
01C000
038000
070000
0E0000
1C0000
380000
700000
E00000
E00000
FFFFF0
FFFFF0
FFFFF0
000000
000000
000000
000000
000000
000000
000000
000000
ENDCHAR
STARTCHAR char51
ENCODING 51
SWIDTH 1775 0
DWIDTH 25 0
BBX 21 40 0 -7
BITMAP
03FF00
07FF80
3FFFF0
3FFFF0
380070
F00078
F00078
F00078
000078
000070
000070
0000E0
0000E0
0001C0
00FF80
00FF80
00FF80
00FF80
0001C0
0000E0
0000E0
000070
000070
000078
F00078
F00078
F00078
300070
3FFFF0
3FFFF0
07FF80
03FF00
000000
000000
000000
000000
000000
000000
000000
000000
ENDCHAR
STARTCHAR char52
ENCODING 52
SWIDTH 1775 0
DWIDTH 25 0
BBX 20 40 0 -7
BITMAP
007000
00F000
00F000
00E000
01C000
03C000
038000
038000
070000
0F0000
0E0000
1E0F00
1C0F00
1C0F00
380F00
780F00
700F00
F00F00
E00F00
E00F00
E00F00
FFFFF0
FFFFF0
FFFFF0
000F00
000F00
000F00
000F00
000F00
000F00
000F00
000F00
000000
000000
000000
000000
000000
000000
000000
000000
ENDCHAR
STARTCHAR char53
ENCODING 53
SWIDTH 1775 0
DWIDTH 25 0
BBX 21 40 0 -7
BITMAP
FFFFF0
FFFFF0
FFFFF0
F00000
F00000
F00000
F00000
F00000
F00000
F00000
F00000
F00000
F00000
F00000
F00000
FFFF00
FFFFF0
FFFFF0
0000F0
000070
000078
000078
000078
000078
F00078
F00078
F00078
700070
3800F0
3FFFF0
3FFFF0
07FF00
000000
000000
000000
000000
000000
000000
000000
000000
ENDCHAR
STARTCHAR char54
ENCODING 54
SWIDTH 1775 0
DWIDTH 25 0
BBX 20 40 0 -7
BITMAP
07FE00
0FFF00
7FFFE0
7FFFE0
7000E0
E00070
E00070
E00070
E00000
E00000
E00000
E00000
E00000
E00000
E00000
E1F800
E7FE00
FFFE00
FE0FE0
F801E0
F000E0
E00070
E00070
E00070
E00070
E00070
E00070
7000E0
7FFFE0
7FFFE0
0FFF00
07FE00
000000
000000
000000
000000
000000
000000
000000
000000
ENDCHAR
STARTCHAR char55
ENCODING 55
SWIDTH 1775 0
DWIDTH 25 0
BBX 20 40 0 -7
BITMAP
FFFFF0
FFFFF0
FFFFF0
0000F0
0000F0
0000E0
0000E0
0000C0
0003C0
000380
000380
000700
000700
000E00
000E00
001C00
001C00
003800
007800
007000
007000
00E000
00E000
01C000
03C000
038000
038000
070000
0F0000
0F0000
0F0000
0F0000
000000
000000
000000
000000
000000
000000
000000
000000
ENDCHAR
STARTCHAR char56
ENCODING 56
SWIDTH 1775 0
DWIDTH 25 0
BBX 19 40 0 -7
BITMAP
03F800
07FC00
3FFF80
3FFF80
380380
7001C0
7001C0
7001C0
7001C0
380380
3C0780
3F1F80
3FFF80
03F800
03F800
01F000
0FFE00
0FFE00
7E0FC0
7803C0
6000C0
E000E0
E000E0
E000E0
E000E0
E000E0
E000E0
E000C0
7FFFC0
7FFFC0
0FFE00
0FFE00
000000
000000
000000
000000
000000
000000
000000
000000
ENDCHAR
STARTCHAR char57
ENCODING 57
SWIDTH 1775 0
DWIDTH 25 0
BBX 21 40 0 -7
BITMAP
03FF00
07FF80
3FFFF0
3FFFF0
380070
700078
700078
700078
700078
700078
700078
380078
3C00F8
3F07F8
07FFF8
03FF78
00F878
000078
000078
000078
000078
000078
000078
000078
F00078
F00078
F00078
300070
3FFFF0
3FFFF0
07FF80
03FF00
000000
000000
000000
000000
000000
000000
000000
000000
ENDCHAR
STARTCHAR char58
ENCODING 58
SWIDTH 1775 0
DWIDTH 25 0
BBX 8 40 4 -7
BITMAP
00
00
00
00
00
00
00
00
00
00
00
00
3E
7E
FF
FF
FF
FF
7E
00
00
00
00
00
00
7E
FF
FF
FF
FF
7E
7E
00
00
00
00
00
00
00
00
ENDCHAR
STARTCHAR char59
ENCODING 59
SWIDTH 1775 0
DWIDTH 25 0
BBX 8 40 4 -7
BITMAP
00
00
00
00
00
00
00
00
00
00
00
00
00
3C
7E
FF
FF
FF
FF
7E
00
00
00
00
00
00
7E
FF
FF
FF
7F
3F
1F
1E
1C
38
30
20
00
00
ENDCHAR
STARTCHAR char60
ENCODING 60
SWIDTH 1775 0
DWIDTH 25 0
BBX 20 40 1 -7
BITMAP
000000
000000
000000
000000
000000
000000
000000
000000
000000
000000
000000
0000F0
0001F0
0007F0
001F80
007E00
01F800
07E000
1FC000
FE0000
FE0000
FE0000
1FC000
07E000
01F800
007E00
001F80
0007F0
0001F0
0000F0
000000
000000
000000
000000
000000
000000
000000
000000
000000
000000
ENDCHAR
STARTCHAR char61
ENCODING 61
SWIDTH 1775 0
DWIDTH 25 0
BBX 20 40 1 -7
BITMAP
000000
000000
000000
000000
000000
000000
000000
000000
000000
000000
000000
000000
000000
000000
000000
000000
FFFFF0
FFFFF0
FFFFF0
000000
000000
000000
000000
FFFFF0
FFFFF0
FFFFF0
000000
000000
000000
000000
000000
000000
000000
000000
000000
000000
000000
000000
000000
000000
ENDCHAR
STARTCHAR char62
ENCODING 62
SWIDTH 1775 0
DWIDTH 25 0
BBX 20 40 1 -7
BITMAP
000000
000000
000000
000000
000000
000000
000000
000000
000000
000000
000000
F00000
F80000
FE0000
1F8000
07E000
01F800
007E00
003F80
0007F0
0007F0
0007F0
003F80
007E00
01F800
07E000
1FC000
FE0000
F80000
F00000
000000
000000
000000
000000
000000
000000
000000
000000
000000
000000
ENDCHAR
STARTCHAR char63
ENCODING 63
SWIDTH 1775 0
DWIDTH 25 0
BBX 19 40 1 -7
BITMAP
07FC00
0FFE00
1FFF80
3E0780
7C03C0
F801E0
F000E0
E000E0
0000E0
0000E0
0000E0
0001E0
0003E0
0007C0
000F80
001F00
003E00
007C00
00F800
01F000
01C000
01C000
01C000
01C000
000000
000000
000000
01E000
01E000
01E000
01E000
01E000
000000
000000
000000
000000
000000
000000
000000
000000
ENDCHAR
STARTCHAR char64
ENCODING 64
SWIDTH 1775 0
DWIDTH 25 0
BBX 21 40 0 -7
BITMAP
000000
000000
000000
000000
000000
000000
000000
000000
000000
000000
03FE00
0FFF80
3FFFE0
7001F0
E000F8
E00078
E00038
E1FC38
E3FFB8
E383B8
E383B8
E383B8
E383F8
E3FFF0
E1FFE0
E00000
F00000
F80000
7C0078
3FFFF0
0FFFE0
03FF80
000000
000000
000000
000000
000000
000000
000000
000000
ENDCHAR
STARTCHAR char65
ENCODING 65
SWIDTH 1775 0
DWIDTH 25 0
BBX 20 40 0 -7
BITMAP
006000
00F000
00F000
01F800
01F800
03FC00
03FC00
039C00
039C00
070E00
070E00
0F0F00
0E0700
0E0700
1C0380
1C0380
1C0380
1C0380
3C03C0
3FFFC0
7FFFE0
7FFFE0
7000E0
7000E0
7000E0
F000F0
F000F0
E00070
E00070
E00070
E00070
E00070
000000
000000
000000
000000
000000
000000
000000
000000
ENDCHAR
STARTCHAR char66
ENCODING 66
SWIDTH 1775 0
DWIDTH 25 0
BBX 21 40 0 -7
BITMAP
FFFE00
FFFE00
FFFFC0
F001C0
F001C0
F000E0
F000E0
F000E0
F000E0
F000E0
F000E0
F000E0
F000E0
F001C0
FFFFC0
FFFFC0
FFFFE0
FFFFE0
F00070
F00078
F00078
F00078
F00078
F00078
F00078
F00078
F00078
F00070
F000F0
FFFFF0
FFFF80
FFFF00
000000
000000
000000
000000
000000
000000
000000
000000
ENDCHAR
STARTCHAR char67
ENCODING 67
SWIDTH 1775 0
DWIDTH 25 0
BBX 20 40 0 -7
BITMAP
07FE00
0FFF00
7FFFE0
7FFFE0
7000E0
E00070
E00070
E00070
E00000
E00000
E00000
E00000
E00000
E00000
E00000
E00000
E00000
E00000
E00000
E00000
E00000
E00000
E00000
E00000
E00070
E00070
E00070
7000E0
7FFFE0
7FFFE0
0FFF00
07FE00
000000
000000
000000
000000
000000
000000
000000
000000
ENDCHAR
STARTCHAR char68
ENCODING 68
SWIDTH 1775 0
DWIDTH 25 0
BBX 21 40 0 -7
BITMAP
FFFF00
FFFF80
FFFFF0
F000F0
F00070
F00078
F00078
F00078
F00078
F00078
F00078
F00078
F00078
F00078
F00078
F00078
F00078
F00078
F00078
F00078
F00078
F00078
F00078
F00078
F00078
F00078
F00078
F00070
F000F0
FFFFF0
FFFF80
FFFF00
000000
000000
000000
000000
000000
000000
000000
000000
ENDCHAR
STARTCHAR char69
ENCODING 69
SWIDTH 1775 0
DWIDTH 25 0
BBX 20 40 0 -7
BITMAP
FFFFF0
FFFFF0
FFFFF0
E00000
E00000
E00000
E00000
E00000
E00000
E00000
E00000
E00000
E00000
E00000
FFFF80
FFFF80
FFFF80
FFFF80
E00000
E00000
E00000
E00000
E00000
E00000
E00000
E00000
E00000
E00000
E00000
FFFFF0
FFFFF0
FFFFF0
000000
000000
000000
000000
000000
000000
000000
000000
ENDCHAR
STARTCHAR char70
ENCODING 70
SWIDTH 1775 0
DWIDTH 25 0
BBX 20 40 0 -7
BITMAP
FFFFF0
FFFFF0
FFFFF0
E00000
E00000
E00000
E00000
E00000
E00000
E00000
E00000
E00000
E00000
E00000
FFFF80
FFFF80
FFFF80
FFFF80
E00000
E00000
E00000
E00000
E00000
E00000
E00000
E00000
E00000
E00000
E00000
E00000
E00000
E00000
000000
000000
000000
000000
000000
000000
000000
000000
ENDCHAR
STARTCHAR char71
ENCODING 71
SWIDTH 1775 0
DWIDTH 25 0
BBX 20 40 0 -7
BITMAP
07FE00
0FFF00
7FFFE0
7FFFE0
7000E0
E00070
E00070
E00070
E00000
E00000
E00000
E00000
E00000
E00000
E00000
E00000
E00000
E00000
E00FF0
E00FF0
E00FF0
E00070
E00070
E00070
E00070
E00070
E00070
7000E0
7FFFE0
7FFFE0
0FFF00
07FE00
000000
000000
000000
000000
000000
000000
000000
000000
ENDCHAR
STARTCHAR char72
ENCODING 72
SWIDTH 1775 0
DWIDTH 25 0
BBX 20 40 0 -7
BITMAP
E00070
E00070
E00070
E00070
E00070
E00070
E00070
E00070
E00070
E00070
E00070
E00070
E00070
E00070
FFFFF0
FFFFF0
FFFFF0
FFFFF0
E00070
E00070
E00070
E00070
E00070
E00070
E00070
E00070
E00070
E00070
E00070
E00070
E00070
E00070
000000
000000
000000
000000
000000
000000
000000
000000
ENDCHAR
STARTCHAR char73
ENCODING 73
SWIDTH 1775 0
DWIDTH 25 0
BBX 10 40 4 -7
BITMAP
FFC0
FFC0
FFC0
1E00
1E00
1E00
1E00
1E00
1E00
1E00
1E00
1E00
1E00
1E00
1E00
1E00
1E00
1E00
1E00
1E00
1E00
1E00
1E00
1E00
1E00
1E00
1E00
1E00
1E00
FFC0
FFC0
FFC0
0000
0000
0000
0000
0000
0000
0000
0000
ENDCHAR
STARTCHAR char74
ENCODING 74
SWIDTH 1775 0
DWIDTH 25 0
BBX 20 40 0 -7
BITMAP
000070
000070
000070
000070
000070
000070
000070
000070
000070
000070
000070
000070
000070
000070
000070
000070
000070
000070
000070
000070
000070
000070
000070
000070
E00070
E00070
E00070
600060
7801E0
7FFFE0
7FFFE0
07FE00
000000
000000
000000
000000
000000
000000
000000
000000
ENDCHAR
STARTCHAR char75
ENCODING 75
SWIDTH 1775 0
DWIDTH 25 0
BBX 20 40 0 -7
BITMAP
E00070
E000F0
E001F0
E001E0
E007C0
E00780
E00F00
E03E00
E03C00
E0F800
E1F000
E1E000
E7C000
E78000
FF0000
FE0000
FC0000
FE0000
FF0000
FF8000
E7C000
E3E000
E1F000
E0F800
E07C00
E03E00
E01F00
E00F80
E007C0
E003E0
E001E0
E000E0
000000
000000
000000
000000
000000
000000
000000
000000
ENDCHAR
STARTCHAR char76
ENCODING 76
SWIDTH 1775 0
DWIDTH 25 0
BBX 20 40 0 -7
BITMAP
E00000
E00000
E00000
E00000
E00000
E00000
E00000
E00000
E00000
E00000
E00000
E00000
E00000
E00000
E00000
E00000
E00000
E00000
E00000
E00000
E00000
E00000
E00000
E00000
E00000
E00000
E00000
E00000
E00000
FFFFF0
FFFFF0
FFFFF0
000000
000000
000000
000000
000000
000000
000000
000000
ENDCHAR
STARTCHAR char77
ENCODING 77
SWIDTH 1775 0
DWIDTH 25 0
BBX 20 40 0 -7
BITMAP
E00070
F000F0
F801F0
F801F0
FE07F0
FE07F0
FF0FF0
E79E70
E39C70
E1F870
E0F070
E06070
E06070
E06070
E00070
E00070
E00070
E00070
E00070
E00070
E00070
E00070
E00070
E00070
E00070
E00070
E00070
E00070
E00070
E00070
E00070
E00070
000000
000000
000000
000000
000000
000000
000000
000000
ENDCHAR
STARTCHAR char78
ENCODING 78
SWIDTH 1775 0
DWIDTH 25 0
BBX 20 40 0 -7
BITMAP
F00070
F00070
F00070
F80070
FC0070
FC0070
FE0070
EE0070
E70070
E70070
E38070
E38070
E1C070
E1C070
E0E070
E0E070
E07070
E07070
E03870
E03870
E01C70
E01C70
E00E70
E00E70
E00770
E007F0
E003F0
E003F0
E001F0
E000F0
E000F0
E000F0
000000
000000
000000
000000
000000
000000
000000
000000
ENDCHAR
STARTCHAR char79
ENCODING 79
SWIDTH 1775 0
DWIDTH 25 0
BBX 19 40 0 -7
BITMAP
0FFE00
0FFE00
7FFFC0
7FFFC0
6000C0
E000E0
E000E0
E000E0
E000E0
E000E0
E000E0
E000E0
E000E0
E000E0
E000E0
E000E0
E000E0
E000E0
E000E0
E000E0
E000E0
E000E0
E000E0
E000E0
E000E0
E000E0
E000E0
E000C0
7FFFC0
7FFFC0
0FFE00
0FFE00
000000
000000
000000
000000
000000
000000
000000
000000
ENDCHAR
STARTCHAR char80
ENCODING 80
SWIDTH 1775 0
DWIDTH 25 0
BBX 21 40 0 -7
BITMAP
FFFF00
FFFF80
FFFFF0
F000F0
F00070
F00078
F00078
F00078
F00078
F00078
F00078
F00078
F00078
F00070
FFFFF0
FFFFF0
FFFF00
FFFF00
F00000
F00000
F00000
F00000
F00000
F00000
F00000
F00000
F00000
F00000
F00000
F00000
F00000
F00000
000000
000000
000000
000000
000000
000000
000000
000000
ENDCHAR
STARTCHAR char81
ENCODING 81
SWIDTH 1775 0
DWIDTH 25 0
BBX 21 40 0 -7
BITMAP
0FFE00
0FFE00
7FFFC0
7FFFC0
6000C0
E000E0
E000E0
E000E0
E000E0
E000E0
E000E0
E000E0
E000E0
E000E0
E000E0
E000E0
E000E0
E000E0
E000E0
E000E0
E000E0
E000E0
E000E0
E000E0
E00EE0
E00FE0
E00FE0
E007E0
7FFFE0
7FFFF0
0FFFF8
0FFE78
000038
000018
000000
000000
000000
000000
000000
000000
ENDCHAR
STARTCHAR char82
ENCODING 82
SWIDTH 1775 0
DWIDTH 25 0
BBX 20 40 0 -7
BITMAP
FFFE00
FFFF00
FFFFE0
E001E0
E000E0
E00070
E00070
E00070
E00070
E00070
E00070
E00070
E00070
E000E0
FFFFE0
FFFFE0
FFFF00
FFFF00
E00380
E00380
E003C0
E001C0
E001C0
E001E0
E000E0
E000E0
E000E0
E000E0
E000E0
E00070
E00070
E00070
000000
000000
000000
000000
000000
000000
000000
000000
ENDCHAR
STARTCHAR char83
ENCODING 83
SWIDTH 1775 0
DWIDTH 25 0
BBX 20 40 0 -7
BITMAP
07FE00
0FFF00
7FFFE0
7FFFE0
7000E0
E00070
E00070
E00070
E00000
E00000
E00000
E00000
E00000
700000
7FF000
7FFFC0
0FFFC0
007FE0
0000E0
000070
000070
000070
000070
000070
E00070
E00070
E00070
7000E0
7FFFE0
7FFFE0
0FFF00
07FE00
000000
000000
000000
000000
000000
000000
000000
000000
ENDCHAR
STARTCHAR char84
ENCODING 84
SWIDTH 1775 0
DWIDTH 25 0
BBX 20 40 1 -7
BITMAP
FFFFF0
FFFFF0
FFFFF0
00F000
00F000
00F000
00F000
00F000
00F000
00F000
00F000
00F000
00F000
00F000
00F000
00F000
00F000
00F000
00F000
00F000
00F000
00F000
00F000
00F000
00F000
00F000
00F000
00F000
00F000
00F000
00F000
00F000
000000
000000
000000
000000
000000
000000
000000
000000
ENDCHAR
STARTCHAR char85
ENCODING 85
SWIDTH 1775 0
DWIDTH 25 0
BBX 20 40 0 -7
BITMAP
E00070
E00070
E00070
E00070
E00070
E00070
E00070
E00070
E00070
E00070
E00070
E00070
E00070
E00070
E00070
E00070
E00070
E00070
E00070
E00070
E00070
E00070
E00070
E00070
E00070
E00070
E00070
600060
7801E0
7FFFE0
7FFFE0
07FE00
000000
000000
000000
000000
000000
000000
000000
000000
ENDCHAR
STARTCHAR char86
ENCODING 86
SWIDTH 1775 0
DWIDTH 25 0
BBX 20 40 0 -7
BITMAP
E00070
E00070
E00070
E00070
7000E0
7000E0
7801E0
3801C0
3801C0
1C0380
1C0380
1C0380
1C0380
0E0700
0E0700
0F0F00
070E00
070E00
039C00
039C00
039C00
039C00
01F800
01F800
01F800
00F000
00F000
00F000
006000
006000
006000
000000
000000
000000
000000
000000
000000
000000
000000
000000
ENDCHAR
STARTCHAR char87
ENCODING 87
SWIDTH 1775 0
DWIDTH 25 0
BBX 20 40 0 -7
BITMAP
E00070
E00070
E00070
E00070
E00070
E00070
E00070
E00070
E00070
E00070
E00070
E00070
E00070
E00070
E00070
E00070
E00070
E00070
E06070
E06070
E06070
E0F070
E1F870
E3FC70
E7FE70
FF0FF0
FE07F0
FE07F0
F801F0
F801F0
F000F0
E00070
000000
000000
000000
000000
000000
000000
000000
000000
ENDCHAR
STARTCHAR char88
ENCODING 88
SWIDTH 1775 0
DWIDTH 25 0
BBX 20 40 0 -7
BITMAP
E00070
E00070
E00070
7000E0
7000E0
7801E0
3801C0
1C0380
1C0380
0E0700
0E0700
0F0F00
070E00
039C00
03FC00
03FC00
03FC00
03FC00
039C00
070E00
070E00
0E0700
0E0700
1C0380
1C0380
3801C0
7801E0
7000E0
7000E0
E00070
E00070
E00070
000000
000000
000000
000000
000000
000000
000000
000000
ENDCHAR
STARTCHAR char89
ENCODING 89
SWIDTH 1775 0
DWIDTH 25 0
BBX 19 40 1 -7
BITMAP
800020
C00060
C00060
E000E0
E000E0
E000E0
7001C0
7803C0
380380
3C0780
1C0700
1C0700
0E0E00
0F1E00
07FE00
07FC00
03F800
01F000
00E000
00E000
00E000
00E000
00E000
00E000
00E000
00E000
00E000
00E000
00E000
00E000
00E000
00E000
000000
000000
000000
000000
000000
000000
000000
000000
ENDCHAR
STARTCHAR char90
ENCODING 90
SWIDTH 1775 0
DWIDTH 25 0
BBX 20 40 0 -7
BITMAP
FFFFF0
FFFFF0
FFFFF0
0000F0
0000F0
0000E0
0001C0
000380
000780
000F00
000E00
001E00
003C00
003C00
007800
007000
00E000
01E000
03C000
03C000
078000
070000
0F0000
1E0000
1C0000
380000
700000
F00000
F00000
FFFFF0
FFFFF0
FFFFF0
000000
000000
000000
000000
000000
000000
000000
000000
ENDCHAR
STARTCHAR char91
ENCODING 91
SWIDTH 1775 0
DWIDTH 25 0
BBX 9 40 11 -7
BITMAP
FF80
FF80
FF80
E000
E000
E000
E000
E000
E000
E000
E000
E000
E000
E000
E000
E000
E000
E000
E000
E000
E000
E000
E000
E000
E000
E000
E000
E000
E000
FF80
FF80
FF80
0000
0000
0000
0000
0000
0000
0000
0000
ENDCHAR
STARTCHAR char92
ENCODING 92
SWIDTH 1775 0
DWIDTH 25 0
BBX 18 40 2 -7
BITMAP
F00000
F00000
F00000
780000
780000
3C0000
3C0000
1E0000
0E0000
0F0000
0F0000
078000
078000
03C000
03C000
01E000
01F000
00F000
00F000
007800
007800
003C00
003C00
001E00
000E00
000F00
000F00
000780
000780
0003C0
0003C0
0001C0
000000
000000
000000
000000
000000
000000
000000
000000
ENDCHAR
STARTCHAR char93
ENCODING 93
SWIDTH 1775 0
DWIDTH 25 0
BBX 10 40 1 -7
BITMAP
FFC0
FFC0
FFC0
01C0
01C0
01C0
01C0
01C0
01C0
01C0
01C0
01C0
01C0
01C0
01C0
01C0
01C0
01C0
01C0
01C0
01C0
01C0
01C0
01C0
01C0
01C0
01C0
01C0
01C0
FFC0
FFC0
FFC0
0000
0000
0000
0000
0000
0000
0000
0000
ENDCHAR
STARTCHAR char94
ENCODING 94
SWIDTH 1775 0
DWIDTH 25 0
BBX 23 40 0 -7
BITMAP
001000
003800
007C00
00FE00
01FF00
03C7C0
0787C0
0F01E0
1E00F0
3C0078
78003C
F0001E
000000
000000
000000
000000
000000
000000
000000
000000
000000
000000
000000
000000
000000
000000
000000
000000
000000
000000
000000
000000
000000
000000
000000
000000
000000
000000
000000
000000
ENDCHAR
STARTCHAR char95
ENCODING 95
SWIDTH 1775 0
DWIDTH 25 0
BBX 25 40 0 -7
BITMAP
00000000
00000000
00000000
00000000
00000000
00000000
00000000
00000000
00000000
00000000
00000000
00000000
00000000
00000000
00000000
00000000
00000000
00000000
00000000
00000000
00000000
00000000
00000000
00000000
00000000
00000000
00000000
00000000
00000000
00000000
00000000
00000000
00000000
00000000
00000000
FFFFFF80
FFFFFF80
FFFFFF80
00000000
00000000
ENDCHAR
STARTCHAR char96
ENCODING 96
SWIDTH 1775 0
DWIDTH 25 0
BBX 8 40 9 -7
BITMAP
04
0C
1C
38
78
F8
FC
FE
FF
FF
7E
7E
00
00
00
00
00
00
00
00
00
00
00
00
00
00
00
00
00
00
00
00
00
00
00
00
00
00
00
00
ENDCHAR
STARTCHAR char97
ENCODING 97
SWIDTH 1775 0
DWIDTH 25 0
BBX 18 40 2 -7
BITMAP
000000
000000
000000
000000
000000
000000
000000
000000
000000
000000
0FFE00
1FFF00
3FFF80
7001C0
7001C0
7001C0
0001C0
0001C0
000FC0
01FFC0
0FFFC0
7FF1C0
FE01C0
F001C0
C001C0
C001C0
C007C0
C007C0
C00FC0
7FFDC0
3FF9C0
1FF1C0
000000
000000
000000
000000
000000
000000
000000
000000
ENDCHAR
STARTCHAR char98
ENCODING 98
SWIDTH 1775 0
DWIDTH 25 0
BBX 19 40 1 -7
BITMAP
000000
000000
000000
000000
000000
E00000
E00000
E00000
E00000
E00000
E00000
E00000
E0FE00
E7FFC0
FFFFC0
FC01C0
F800E0
F000E0
F000E0
F000E0
F000E0
F000E0
F000E0
F000E0
F000E0
F000E0
F800E0
FC01C0
FFFFC0
E7FFC0
E3FE00
E0FC00
000000
000000
000000
000000
000000
000000
000000
000000
ENDCHAR
STARTCHAR char99
ENCODING 99
SWIDTH 1775 0
DWIDTH 25 0
BBX 18 40 2 -7
BITMAP
000000
000000
000000
000000
000000
000000
000000
000000
000000
000000
000000
000000
0FFE00
7FFF00
7FFF80
7001C0
E001C0
E001C0
E00000
E00000
E00000
E00000
E00000
E00000
E00000
E00000
E001C0
E001C0
7001C0
7FFF80
7FFF00
0FFE00
000000
000000
000000
000000
000000
000000
000000
000000
ENDCHAR
STARTCHAR char100
ENCODING 100
SWIDTH 1775 0
DWIDTH 25 0
BBX 18 40 2 -7
BITMAP
000000
000000
000000
0001C0
0001C0
0001C0
0001C0
0001C0
0001C0
0001C0
0001C0
0001C0
0FE1C0
7FFDC0
7FFFC0
600FC0
E007C0
E003C0
E001C0
E001C0
E001C0
E001C0
E001C0
E001C0
E001C0
E003C0
E007C0
600FC0
7FFFC0
7FFDC0
0FE1C0
0001C0
000000
000000
000000
000000
000000
000000
000000
000000
ENDCHAR
STARTCHAR char101
ENCODING 101
SWIDTH 1775 0
DWIDTH 25 0
BBX 18 40 2 -7
BITMAP
000000
000000
000000
000000
000000
000000
000000
000000
000000
000000
000000
000000
0FF800
7FFF80
7FFF80
700780
E001C0
C001C0
C001C0
C001C0
FFFFC0
FFFFC0
FFFFC0
C00000
C00000
C00000
C001C0
E001C0
7001C0
7FFF80
7FFF00
0FFE00
000000
000000
000000
000000
000000
000000
000000
000000
ENDCHAR
STARTCHAR char102
ENCODING 102
SWIDTH 1775 0
DWIDTH 25 0
BBX 15 40 4 -7
BITMAP
0000
0000
0000
00FE
00FE
01FE
0700
0700
0700
0700
0700
0700
0700
FFFE
FFFE
FFFE
0700
0700
0700
0700
0700
0700
0700
0700
0700
0700
0700
0700
0700
0700
0700
0700
0000
0000
0000
0000
0000
0000
0000
0000
ENDCHAR
STARTCHAR char103
ENCODING 103
SWIDTH 1775 0
DWIDTH 25 0
BBX 18 40 2 -7
BITMAP
000000
000000
000000
000000
000000
000000
000000
000000
000000
000000
000000
0001C0
0FE1C0
7FF9C0
7FFFC0
700FC0
E007C0
E003C0
E001C0
E001C0
E001C0
E001C0
E001C0
E001C0
E001C0
E001C0
E003C0
E007C0
7FFFC0
7FFDC0
7FF1C0
0FC1C0
0001C0
0001C0
0001C0
700380
7FFF80
7FFF80
7FFF80
1FF800
ENDCHAR
STARTCHAR char104
ENCODING 104
SWIDTH 1775 0
DWIDTH 25 0
BBX 20 40 1 -7
BITMAP
000000
000000
000000
F00000
F00000
F00000
F00000
F00000
F00000
F00000
F00000
F00000
F1FE00
F7FFC0
FFFFC0
FF01C0
F800F0
F000F0
F000F0
F000F0
F000F0
F000F0
F000F0
F000F0
F000F0
F000F0
F000F0
F000F0
F000F0
F000F0
F000F0
F000F0
000000
000000
000000
000000
000000
000000
000000
000000
ENDCHAR
STARTCHAR char105
ENCODING 105
SWIDTH 1775 0
DWIDTH 25 0
BBX 4 40 8 -7
BITMAP
00
00
F0
F0
F0
F0
F0
00
00
00
00
70
70
70
70
70
70
70
70
70
70
70
70
70
70
70
70
70
70
70
70
70
00
00
00
00
00
00
00
00
ENDCHAR
STARTCHAR char106
ENCODING 106
SWIDTH 1775 0
DWIDTH 25 0
BBX 9 40 6 -7
BITMAP
0000
0000
0000
0780
0780
0780
0780
0780
0000
0000
0000
0000
0000
0380
0380
0380
0380
0380
0380
0380
0380
0380
0380
0380
0380
0380
0380
0380
0380
0380
0380
0380
0380
0380
0380
0380
0380
FF00
FE00
FC00
ENDCHAR
STARTCHAR char107
ENCODING 107
SWIDTH 1775 0
DWIDTH 25 0
BBX 20 40 1 -7
BITMAP
000000
000000
000000
F00000
F00000
F00000
F00000
F00000
F00000
F00000
F00000
F00000
F01F00
F03E00
F07C00
F0F800
F1F000
F3E000
F7C000
FFC000
FFE000
FFF000
FFF800
F87C00
F03E00
F01F00
F00F80
F00780
F003E0
F001F0
F000F0
F00070
000000
000000
000000
000000
000000
000000
000000
000000
ENDCHAR
STARTCHAR char108
ENCODING 108
SWIDTH 1775 0
DWIDTH 25 0
BBX 4 40 9 -7
BITMAP
00
00
F0
F0
F0
F0
F0
F0
F0
F0
F0
F0
F0
F0
F0
F0
F0
F0
F0
F0
F0
F0
F0
F0
F0
F0
F0
F0
F0
F0
F0
F0
00
00
00
00
00
00
00
00
ENDCHAR
STARTCHAR char109
ENCODING 109
SWIDTH 1775 0
DWIDTH 25 0
BBX 20 40 1 -7
BITMAP
000000
000000
000000
000000
000000
000000
000000
000000
000000
000000
F00000
F3C000
F7C7C0
FFCFF0
FFEFF0
F0F0F0
F0F0F0
F0F0F0
F0F0F0
F0F0F0
F0F0F0
F0F0F0
F0F0F0
F0F0F0
F0F0F0
F0F0F0
F0F0F0
F0F0F0
F0F0F0
F0F0F0
F0F0F0
F0F0F0
000000
000000
000000
000000
000000
000000
000000
000000
ENDCHAR
STARTCHAR char110
ENCODING 110
SWIDTH 1775 0
DWIDTH 25 0
BBX 20 40 1 -7
BITMAP
000000
000000
000000
000000
000000
000000
000000
000000
000000
000000
000000
F00000
F3FF80
F7FFC0
FFFFE0
FC01F0
F800F0
F000F0
F000F0
F000F0
F000F0
F000F0
F000F0
F000F0
F000F0
F000F0
F000F0
F000F0
F000F0
F000F0
F000F0
F000F0
000000
000000
000000
000000
000000
000000
000000
000000
ENDCHAR
STARTCHAR char111
ENCODING 111
SWIDTH 1775 0
DWIDTH 25 0
BBX 19 40 1 -7
BITMAP
000000
000000
000000
000000
000000
000000
000000
000000
000000
000000
000000
000000
07FC00
3FFFC0
3FFFC0
3803C0
7001C0
F001E0
F001E0
F001E0
F001E0
F001E0
F001E0
F001E0
F001E0
F001E0
F001E0
7001C0
3803C0
3FFFC0
3FFFC0
07FC00
000000
000000
000000
000000
000000
000000
000000
000000
ENDCHAR
STARTCHAR char112
ENCODING 112
SWIDTH 1775 0
DWIDTH 25 0
BBX 19 40 1 -7
BITMAP
000000
000000
000000
000000
000000
000000
000000
000000
000000
000000
E00000
E00000
E0FE00
E7FFC0
FFFFC0
FC01C0
F800E0
F000E0
F000E0
F000E0
F000E0
F000E0
F000E0
F000E0
F000E0
F000E0
F800E0
FC01C0
FE03C0
E7FFC0
E3FFC0
E0FC00
E00000
E00000
E00000
E00000
E00000
E00000
E00000
E00000
ENDCHAR
STARTCHAR char113
ENCODING 113
SWIDTH 1775 0
DWIDTH 25 0
BBX 18 40 2 -7
BITMAP
000000
000000
000000
000000
000000
000000
000000
000000
000000
000000
000000
0001C0
0FE1C0
7FFDC0
7FFFC0
600FC0
E007C0
E003C0
E001C0
E001C0
E001C0
E001C0
E001C0
E001C0
E001C0
E003C0
E007C0
600FC0
7FFFC0
7FFDC0
0FE1C0
0001C0
0001C0
0001C0
0001C0
0001C0
0001C0
0001C0
0001C0
0001C0
ENDCHAR
STARTCHAR char114
ENCODING 114
SWIDTH 1775 0
DWIDTH 25 0
BBX 18 40 1 -7
BITMAP
000000
000000
000000
000000
000000
000000
000000
000000
000000
000000
000000
E00000
E1FC00
E7FF00
FFFF80
FF07C0
F803C0
F00000
E00000
E00000
E00000
E00000
E00000
E00000
E00000
E00000
E00000
E00000
E00000
E00000
E00000
E00000
000000
000000
000000
000000
000000
000000
000000
000000
ENDCHAR
STARTCHAR char115
ENCODING 115
SWIDTH 1775 0
DWIDTH 25 0
BBX 17 40 3 -7
BITMAP
000000
000000
000000
000000
000000
000000
000000
000000
000000
000000
000000
000000
1FFC00
3FFE00
7FFF00
E00380
E00380
E00380
E00000
E00000
FFFC00
7FFE00
3FFF00
000380
000380
000380
E00380
E00380
E00380
7FFF00
3FFE00
1FFC00
000000
000000
000000
000000
000000
000000
000000
000000
ENDCHAR
STARTCHAR char116
ENCODING 116
SWIDTH 1775 0
DWIDTH 25 0
BBX 15 40 4 -7
BITMAP
0000
0000
0000
0700
0700
0700
0700
0700
0700
0700
0700
FFFE
FFFE
FFFE
0700
0700
0700
0700
0700
0700
0700
0700
0700
0700
0700
0700
0700
0700
0700
01FE
00FE
00FE
0000
0000
0000
0000
0000
0000
0000
0000
ENDCHAR
STARTCHAR char117
ENCODING 117
SWIDTH 1775 0
DWIDTH 25 0
BBX 20 40 1 -7
BITMAP
000000
000000
000000
000000
000000
000000
000000
000000
000000
000000
000000
F000F0
F000F0
F000F0
F000F0
F000F0
F000F0
F000F0
F000F0
F000F0
F000F0
F000F0
F000F0
F000F0
F000F0
F000F0
F001F0
380FF0
3FFFF0
3FFEF0
07F8F0
0000F0
000000
000000
000000
000000
000000
000000
000000
000000
ENDCHAR
STARTCHAR char118
ENCODING 118
SWIDTH 1775 0
DWIDTH 25 0
BBX 20 40 1 -7
BITMAP
000000
000000
000000
000000
000000
000000
000000
000000
000000
000000
000000
F000F0
F000F0
F000F0
F000F0
F801F0
3801C0
3C03C0
3E07C0
1E0780
0F0F80
0F0F00
070E00
070E00
07FE00
03FC00
01F800
01F800
00F000
00F000
00F000
00F000
000000
000000
000000
000000
000000
000000
000000
000000
ENDCHAR
STARTCHAR char119
ENCODING 119
SWIDTH 1775 0
DWIDTH 25 0
BBX 20 40 1 -7
BITMAP
000000
000000
000000
000000
000000
000000
000000
000000
000000
000000
000000
F000F0
F000F0
F000F0
F000F0
F000F0
F000F0
F000F0
F000F0
F000F0
F000F0
F000F0
F000F0
F0F0F0
F1F8F0
F3FCF0
F70EF0
FE07F0
FC03F0
F801F0
F000F0
E00070
000000
000000
000000
000000
000000
000000
000000
000000
ENDCHAR
STARTCHAR char120
ENCODING 120
SWIDTH 1775 0
DWIDTH 25 0
BBX 19 40 1 -7
BITMAP
000000
000000
000000
000000
000000
000000
000000
000000
000000
000000
000000
000000
C00060
E000E0
F001E0
F803E0
7C07C0
3E0F80
1E1F00
0FFE00
07FC00
03F800
03F800
07FC00
0FFE00
1F1F00
3E0F80
7C07C0
F803E0
F001E0
E000E0
C00060
000000
000000
000000
000000
000000
000000
000000
000000
ENDCHAR
STARTCHAR char121
ENCODING 121
SWIDTH 1775 0
DWIDTH 25 0
BBX 20 40 1 -7
BITMAP
000000
000000
000000
000000
000000
000000
000000
000000
000000
000000
000000
F000F0
F000F0
F000F0
F000F0
F000F0
F000F0
F000F0
F000F0
F000F0
F000F0
F000F0
F000F0
F000F0
F000F0
F000F0
F001F0
7007F0
3FFFF0
3FFEF0
3FF8F0
03E0F0
0000F0
0000F0
0000F0
3801C0
3FFFC0
3FFFC0
1FFFC0
0FFE00
ENDCHAR
STARTCHAR char122
ENCODING 122
SWIDTH 1775 0
DWIDTH 25 0
BBX 20 40 1 -7
BITMAP
000000
000000
000000
000000
000000
000000
000000
000000
000000
000000
000000
FFFFF0
FFFFF0
FFFFF0
0003E0
0003C0
000780
000F00
001E00
003C00
007800
00F000
01E000
03C000
078000
0F0000
1E0000
3C0000
7C0000
FFFFF0
FFFFF0
FFFFF0
000000
000000
000000
000000
000000
000000
000000
000000
ENDCHAR
STARTCHAR char123
ENCODING 123
SWIDTH 1775 0
DWIDTH 25 0
BBX 9 40 11 -7
BITMAP
0780
0F00
1C00
3800
3800
3800
3800
3C00
3C00
3C00
3C00
3C00
3C00
7800
F800
F800
F800
F800
7800
3C00
3C00
3C00
3C00
3C00
3C00
3800
3800
3800
3800
1C00
0F00
0780
0000
0000
0000
0000
0000
0000
0000
0000
ENDCHAR
STARTCHAR char124
ENCODING 124
SWIDTH 1775 0
DWIDTH 25 0
BBX 4 40 9 -7
BITMAP
F0
F0
F0
F0
F0
F0
F0
F0
F0
F0
F0
F0
F0
F0
F0
F0
F0
F0
F0
F0
F0
F0
F0
F0
F0
F0
F0
F0
F0
F0
F0
F0
F0
F0
F0
F0
F0
F0
F0
F0
ENDCHAR
STARTCHAR char125
ENCODING 125
SWIDTH 1775 0
DWIDTH 25 0
BBX 8 40 2 -7
BITMAP
F0
78
1C
1E
0E
0E
1C
1C
1C
1C
1C
1C
1C
0E
0F
0F
0F
0F
0E
1C
1C
1C
1C
1C
1C
1C
0E
0E
1E
1C
78
F0
00
00
00
00
00
00
00
00
ENDCHAR
STARTCHAR char126
ENCODING 126
SWIDTH 1775 0
DWIDTH 25 0
BBX 21 40 0 -7
BITMAP
000000
000000
000000
000000
000000
000000
000000
000000
000000
000000
000000
000000
000000
000000
000000
000000
0F8008
1FC008
3FE008
7FF018
7FF838
71FC70
E0FFF0
C07FF0
803FE0
801FC0
800F80
000000
000000
000000
000000
000000
000000
000000
000000
000000
000000
000000
000000
000000
ENDCHAR
STARTCHAR char127
ENCODING 127
SWIDTH 1775 0
DWIDTH 25 0
BBX 23 40 0 -7
BITMAP
0001F8
0003FC
0007FE
000F0E
000F0E
000F0E
000F00
001E00
001E00
001E00
001E00
003C00
003C00
003C00
003800
003800
003800
003800
003800
003800
007800
007800
007000
007000
00F000
00F000
00F000
00F000
00E000
00E000
00E000
00E000
F1C000
F1C000
F1C000
F1C000
71C000
3FC000
1F8000
0F0000
ENDCHAR
ENDFONT
